<svg width="2806" height="3050" viewBox="0 0 2806 3050" fill="none" xmlns="http://www.w3.org/2000/svg">
<path d="M3.08397 6.86468C346.741 -34.2229 680.865 254.869 691.548 598.854C687.932 901.752 704.86 1206.46 682.344 1508.37C614.961 1815.87 306.475 2006.19 3.08397 1996.33C1.60482 1333.17 1.60482 670.018 3.08397 6.86468Z" fill="#C09341"/>
<path d="M970.282 8.33832C1358.48 34.9631 1765.74 -58.7169 2140.79 69.6407C2642.71 278.366 2783.07 1026 2369.4 1388.55C2776.49 1606.15 2932.95 2167.57 2691.85 2565.63C2539.99 2843.05 2241.2 3031.56 1925.16 3046.52C1514.28 3049.97 1103.24 3046.03 692.366 3048.33C324.057 3070.02 -37.1856 2734.25 3.08025 2358.22C643.718 2355.75 1284.52 2358.88 1925.16 2356.9C2035.93 2338.83 2145.39 2230.19 2123.2 2110.54C2120.08 1987.45 1992.05 1902.48 1875.85 1914.47C1552.25 1910.53 1228.64 1916.94 905.2 1912.67C1116.72 1706.41 1084.34 1394.63 1088.29 1125.59C1307.04 1121.65 1525.79 1127.73 1744.7 1124.28C1905.27 1108.01 2012.76 897.145 1904.45 766.98C1802.22 611.997 1595.14 705.184 1451.01 628.761C1180.82 543.299 1019.75 274.093 970.282 8.33832Z" fill="#C09341"/>
</svg>
